<svg xmlns="http://www.w3.org/2000/svg" xmlns:xlink="http://www.w3.org/1999/xlink" viewBox="0 0 442.59 95.33"><defs><style>.cls-1{fill:none;}.cls-2{isolation:isolate;}.cls-3{clip-path:url(#clip-path);}.cls-10,.cls-11,.cls-4,.cls-7,.cls-9{mix-blend-mode:multiply;}.cls-5{fill:#ff002f;}.cls-5,.cls-6{opacity:0.04;}.cls-6{fill:#00ffd0;}.cls-7{fill:url(#radial-gradient);}.cls-8{mix-blend-mode:color-dodge;}.cls-9{fill:url(#radial-gradient-2);}.cls-10{fill:url(#radial-gradient-3);}.cls-11{fill:url(#radial-gradient-4);}.cls-12{opacity:0.58;}.cls-13{opacity:0.51;}.cls-14{fill:lime;}.cls-15{opacity:0.57;}.cls-16{fill:#f0f;}.cls-17{fill:#fff;}</style><clipPath id="clip-path"><rect class="cls-1" x="-219.53" y="-864.3" width="1240.75" height="641.9"/></clipPath><radialGradient id="radial-gradient" cx="97.41" cy="-2994.11" r="23.24" gradientTransform="matrix(-28.34, 0.03, -0.03, -39.14, 2776.4, -117556.45)" gradientUnits="userSpaceOnUse"><stop offset="0.01" stop-color="#c1aa98"/><stop offset="0.04" stop-color="#c8b4a4"/><stop offset="0.12" stop-color="#d9cbc0"/><stop offset="0.21" stop-color="#e7ded7"/><stop offset="0.31" stop-color="#f2ede9"/><stop offset="0.44" stop-color="#f9f7f6"/><stop offset="0.61" stop-color="#fefdfd"/><stop offset="1" stop-color="#fff"/></radialGradient><radialGradient id="radial-gradient-2" cx="115.54" cy="-3301.89" r="13.62" gradientTransform="matrix(-30.29, 0.02, -0.03, -35.84, 3517.95, -118715.49)" gradientUnits="userSpaceOnUse"><stop offset="0" stop-color="#fff"/><stop offset="0.01" stop-color="#f6f6f6"/><stop offset="0.05" stop-color="#c8c8c8"/><stop offset="0.09" stop-color="#9d9d9d"/><stop offset="0.14" stop-color="#777"/><stop offset="0.19" stop-color="#575757"/><stop offset="0.25" stop-color="#3b3b3b"/><stop offset="0.32" stop-color="#252525"/><stop offset="0.4" stop-color="#141414"/><stop offset="0.49" stop-color="#090909"/><stop offset="0.62" stop-color="#020202"/><stop offset="0.99"/></radialGradient><radialGradient id="radial-gradient-3" cx="90.82" cy="-2987.29" r="23.24" xlink:href="#radial-gradient"/><radialGradient id="radial-gradient-4" cx="102.27" cy="-3294.44" r="21.75" xlink:href="#radial-gradient-2"/></defs><title>jlend</title><g class="cls-2"><g id="Layer_1" data-name="Layer 1"><g class="cls-3"><g class="cls-4"><path class="cls-5" d="M414.79-543.35c-11.27,117-24.34,227-40,322.08-7.51,45.64-15.42,86.56-24.08,121.81-8.19,33.28-16.69,60.38-26.39,80.4-8.59,17.7-17.9,29.16-28.36,31-9.35,1.59-20.29-6.21-30-20.28-22.44-32.57-41.25-89.43-63.47-161.25-10.68-34.52-21-69.18-31.26-102.69-9.65-31.4-19.08-61-28.53-88.09-8.59-24.63-17.06-46.73-25.48-66a448.69,448.69,0,0,0-22-44.28,303.74,303.74,0,0,0-18.08-27.8c-5-6.9-9.74-12.78-13.61-18C56.55-526,52-534.62,52-543.35s4.58-17.32,11.59-26.82c3.87-5.25,8.58-11.14,13.61-18A305.13,305.13,0,0,0,95.25-616a449,449,0,0,0,22-44.29c8.42-19.28,16.89-41.37,25.48-66,9.45-27.09,18.88-56.7,28.53-88.1,10.3-33.51,20.58-68.17,31.26-102.69,22.22-71.82,41-128.68,63.47-161.25,9.71-14.06,20.65-21.87,30-20.27,10.46,1.79,19.77,13.25,28.36,31,9.7,20,18.2,47.11,26.39,80.4,8.66,35.25,16.57,76.16,24.08,121.8C390.45-770.34,403.52-660.37,414.79-543.35Z"/><path class="cls-5" d="M465.89-543.35c-12.71,117.87-27.26,229.14-44.15,326.69-8.19,47.3-16.8,90.44-26,128.57-8.89,36.66-18.15,67.9-28.25,93-9.39,23.28-19.05,40.45-30.12,50.31-9.58,8.52-21.37,10.3-31.63,4.59C281.93,46.49,262,5.59,239.37-53.45c-11.23-29.29-21.9-60.66-32.39-92.82-10.13-31-19.89-62.2-29.43-92.58-9-28.72-17.74-56.36-26.16-82.38-7.85-24.23-15.39-46.86-22.52-67.64-6.58-19.2-12.79-36.8-18.41-52.77-5.2-14.75-9.91-28.23-13.83-40.55-7.07-22.25-11.74-42.1-11.74-61.16s4.67-38.91,11.74-61.16c3.92-12.33,8.63-25.8,13.83-40.56,5.62-16,11.83-33.56,18.41-52.76,7.13-20.78,14.67-43.41,22.52-67.65,8.42-26,17.14-53.65,26.16-82.37,9.54-30.38,19.3-61.54,29.43-92.58,10.49-32.16,21.16-63.53,32.39-92.83,22.64-59,42.56-99.94,66.33-113.23,10.26-5.72,22.05-3.94,31.63,4.58,11.07,9.87,20.73,27,30.12,50.31,10.1,25.08,19.36,56.33,28.25,93,9.24,38.14,17.85,81.27,26,128.57C438.63-772.5,453.18-661.22,465.89-543.35Z"/><path class="cls-5" d="M492.66-543.35C479.26-425.29,464-313.63,446.49-215.28,438-167.42,429-123.53,419.5-84.41,410.28-46.58,400.69-13.88,390.35,13,371.49,61.89,348.46,89.14,327,84c-23.35-5.67-44.8-40.19-67.75-93.33s-43.16-115.22-62.88-177.79c-9.2-29.22-18.05-58-26.54-85.71-8-26.13-15.64-51.14-22.8-74.7-13-42.64-24.52-80.43-32.61-113.13-7.22-29.2-11.85-56.29-11.85-82.67s4.63-53.48,11.85-82.68C122.47-658.72,134-696.52,147-739.16c7.16-23.56,14.8-48.57,22.8-74.7,8.49-27.71,17.34-56.49,26.54-85.7,19.72-62.58,40-124.73,62.88-177.8s44.4-87.65,67.75-93.32c21.5-5.17,44.53,22.08,63.39,71,10.34,26.86,19.93,59.55,29.15,97.38,9.54,39.13,18.47,83,27,130.87C464-773.07,479.26-661.42,492.66-543.35Z"/><path class="cls-5" d="M545-543.35c-14.65,118-31.17,229.9-49.83,329.15C477-117.9,457.72-37,435.64,22.9c-20.2,54.71-41.7,89.08-66.42,93.86-21.8,4.17-46.75-19.23-70.37-62.86C275,9.79,254-47,234-108.1c-18.72-57-35.75-115.58-50.66-171.3C169.8-329.89,158.09-378,150-422.45c-7.49-41-12.1-81-12.1-120.9s4.61-79.91,12.1-120.91c8.14-44.46,19.85-92.56,33.36-143C198.22-863,215.25-921.6,234-978.6c20.06-61.1,41-117.89,64.88-162,23.62-43.64,48.57-67,70.37-62.87,24.72,4.79,46.22,39.16,66.42,93.86,22.08,59.86,41.4,140.81,59.51,237.11C513.81-773.25,530.33-661.35,545-543.35Z"/><path class="cls-5" d="M569.32-543.35c-15.2,118-32.28,230-51.44,329.52C499.24-117,479.36-35.09,456.9,26.36c-20.76,56.72-42.39,93.31-67.75,101.86-21.78,7.3-47.58-11.69-71.53-51.78C293.36,35.8,272.08-18.73,251.84-78.92c-19-56.56-36.27-116.15-51.27-174.17-13.73-53.15-25.53-105-33.7-154-7.62-45.62-12.22-90.88-12.23-136.28s4.61-90.66,12.23-136.29c8.17-49,20-100.83,33.7-154,15-58,32.24-117.61,51.27-174.18,20.24-60.19,41.52-114.72,65.78-155.36,23.95-40.09,49.75-59.08,71.53-51.78,25.36,8.55,47,45.14,67.75,101.86,22.46,61.45,42.34,143.38,61,240.19C537-773.31,554.12-661.32,569.32-543.35Z"/><path class="cls-5" d="M616.77-543.35c-16.21,117.67-34.3,229.59-54.4,329.48-19.61,97.41-40.51,180.7-63.73,244.48-21.75,59.73-44.18,99.8-70.2,114.06-22.47,12.26-49.11.17-73.71-34.16-25-34.88-46.86-85.45-67.49-143.75C267.67-88.61,250-149.32,234.83-210.64c-14.13-57.06-26.11-114.75-34.39-171C192.63-434.79,188-488.72,188-543.35s4.64-108.56,12.45-161.73c8.28-56.24,20.26-113.93,34.39-171,15.2-61.32,32.84-122,52.41-177.4,20.63-58.31,42.52-108.88,67.49-143.76,24.6-34.33,51.24-46.41,73.71-34.15,26,14.25,48.45,54.33,70.2,114,23.22,63.78,44.12,147.08,63.73,244.49C582.47-772.95,600.56-661,616.77-543.35Z"/><path class="cls-5" d="M638.67-543.35C622-425.71,603.48-313.73,583-213.65c-20,97.7-41.38,181.57-64.93,246.27C495.85,93.5,473,135,446.73,151.3,423.85,165.49,397,156,372.05,123.8c-25.27-32.67-47.43-81.7-68.24-139.23C284-70.27,266.17-131.36,250.88-193.9c-14.3-58.52-26.37-118.47-34.7-177.56a1234.81,1234.81,0,0,1-12.56-171.89,1234.58,1234.58,0,0,1,12.56-171.89c8.33-59.1,20.4-119,34.7-177.57,15.29-62.54,33.11-123.63,52.93-178.46,20.81-57.54,43-106.57,68.24-139.24,24.91-32.15,51.8-41.68,74.68-27.5,26.25,16.34,49.12,57.81,71.3,118.69C541.58-1054.62,562.92-970.76,583-873,603.48-773,622-661,638.67-543.35Z"/><path class="cls-5" d="M683.7-543.35c-17.54,117.12-37,228.77-58.3,328.8-20.89,97.84-43.08,182.36-67.32,248.37-23,62.63-46.76,106.39-73.47,126.16-23.73,17.53-51.06,12.37-76.59-15.87-25.86-28.66-48.58-74.74-69.75-130.61-20.3-53.57-38.47-114.95-54-179.28A1835.87,1835.87,0,0,1,249-354.06a1448.74,1448.74,0,0,1-12.78-189.29A1448.77,1448.77,0,0,1,249-732.65a1835.67,1835.67,0,0,1,35.32-188.27c15.51-64.34,33.68-125.71,54-179.29,21.17-55.87,43.89-102,69.75-130.6,25.53-28.24,52.86-33.41,76.59-15.88,26.71,19.77,50.45,63.53,73.47,126.16,24.24,66,46.43,150.54,67.32,248.37C646.74-772.13,666.16-660.48,683.7-543.35Z"/><path class="cls-5" d="M722.63-543.35C686.1-309.67,643.77-102.18,592.91,35.1,569.21,99,544.76,144.42,517.65,166.56c-24.44,19.91-52.13,17.76-78.18-7.74C413.14,133,389.94,89,368.45,34.35,347.77-18.3,329.3-79.84,313.6-145.42a1846.65,1846.65,0,0,1-35.85-195.94,1609,1609,0,0,1-13-202,1608.87,1608.87,0,0,1,13-202A1847.31,1847.31,0,0,1,313.6-941.29c15.7-65.58,34.17-127.12,54.85-179.76,21.49-54.67,44.69-98.65,71-124.47,26-25.5,53.74-27.66,78.18-7.74,27.11,22.14,51.56,67.56,75.26,131.45C643.77-984.53,686.1-777,722.63-543.35Z"/><path class="cls-5" d="M742.1-543.35C704.87-310.64,661.78-103.7,610.38,33.9c-24,64.25-48.81,110.27-76.12,133.36-24.79,20.91-52.65,20.06-79-4.16C402,113.87,360.71-2.79,328.39-137.64a1836.47,1836.47,0,0,1-36.11-198.7,1673.08,1673.08,0,0,1-13.06-207,1673.08,1673.08,0,0,1,13.06-207,1836,1836,0,0,1,36.11-198.7C360.71-1083.91,402-1200.57,455.3-1249.8c26.31-24.23,54.17-25.07,79-4.16,27.31,23.09,52.1,69.11,76.12,133.35C661.78-983,704.87-776.07,742.1-543.35Z"/><path class="cls-5" d="M760.35-543.35c-37.87,232.2-81.65,439-133.55,577C579.2,160.13,523.13,213.85,470.2,167.74c-53.72-47-95.41-162.66-127.88-298.12-29.62-123.72-49.47-266.93-49.49-413s19.87-289.25,49.49-413c32.47-135.46,74.16-251.14,127.88-298.12,52.93-46.11,109,7.62,156.6,134.07C678.7-982.31,722.48-775.56,760.35-543.35Z"/><path class="cls-5" d="M795.64-543.35c-39.09,229.81-84.15,434.92-137,572.93C609.84,156.76,553.14,213.42,499.16,171.16c-54.43-42.78-96.94-156-129.71-291.6-30.13-124.86-50.08-271.82-50.1-422.91s20-298,50.1-422.91c32.77-135.61,75.28-248.82,129.71-291.61,54-42.25,110.68,14.4,159.46,141.58C711.49-978.27,756.55-773.16,795.64-543.35Z"/><path class="cls-5" d="M832.14-543.35c-40.3,227-86.63,430-140.49,567.52C641.7,151.58,584.38,210.62,529.32,171.9,474.2,133,430.84,22.32,397.77-112.95,367.13-238.4,347.06-388.23,347-543.35s20.09-304.95,50.73-430.4c33.07-135.28,76.43-245.92,131.55-284.86,55.06-38.72,112.38,20.33,162.33,147.73C745.51-973.34,791.84-770.3,832.14-543.35Z"/><path class="cls-5" d="M849.18-543.35C808.33-317.83,761.42-115.86,707.1,21.35,656.63,148.71,599,208.69,543.45,171.47S444.27,24.73,411.06-110.27c-30.86-125.56-51-276.43-51-433.08s20.16-307.53,51-433.09c33.21-135,77-244.44,132.39-281.74S656.63-1235.41,707.1-1108C761.42-970.84,808.33-768.88,849.18-543.35Z"/><path class="cls-5" d="M878.38-543.35C836.61-321.13,788.73-121.76,733.64,14.3,682.28,141,624.2,202.14,567.77,167.44,511.85,132.88,467.42,25.81,434-108.11,402.71-233.24,382.47-385,382.45-543.35S402.71-853.46,434-978.6c33.47-133.91,77.9-241,133.82-275.55,56.43-34.7,114.51,26.45,165.87,153.14C788.73-964.94,836.61-765.57,878.38-543.35Z"/><path class="cls-5" d="M890.55-543.35C848.4-323.47,800.14-126,744.71,9,693,134.79,634.73,196.11,577.94,162.54c-56.12-33.35-100.83-139-134.41-271.86-31.39-124.39-51.68-275.81-51.7-434s20.31-309.65,51.7-434c33.58-132.86,78.29-238.51,134.41-271.86,56.79-33.57,115,27.74,166.77,153.57C800.14-960.67,848.4-763.23,890.55-543.35Z"/><path class="cls-5" d="M912.45-543.35C869.64-328.14,820.68-134.59,764.67-1.83c-52.35,124-110.94,185.33-168.39,153.74C539.82,120.69,494.59,17.77,460.83-112.87c-31.67-122.69-52-273-52.06-430.48s20.39-307.79,52.06-430.48c33.76-130.65,79-233.57,135.45-264.78,57.45-31.59,116,29.78,168.39,153.73C820.68-952.11,869.64-758.56,912.45-543.35Z"/><path class="cls-5" d="M930.7-543.35C887.36-334.19,837.84-145.78,781.33-16.19,728.46,104.92,669.62,165.66,611.61,135.94,554.88,106.71,509.22,7,475.3-120.44,443.41-240.45,423-388.19,423-543.35s20.46-302.9,52.35-422.91c33.92-127.48,79.58-227.15,136.31-256.38,58-29.73,116.85,31,169.72,152.12C837.84-940.92,887.36-752.51,930.7-543.35Z"/><path class="cls-5" d="M939.22-543.35C895.63-337.45,845.85-151.82,789.11-24,736,95.54,677.05,155.84,618.77,127,561.93,98.73,516.06.75,482.07-125c-32-118.49-52.47-264.68-52.49-418.38s20.49-299.89,52.49-418.39c34-125.71,79.86-223.69,136.7-252,58.28-28.83,117.23,31.47,170.34,151C845.85-934.89,895.63-749.26,939.22-543.35Z"/><path class="cls-5" d="M953.82-543.35c-44,198-94.2,376.85-151.37,500.32C749,72.39,689.82,131.24,631.08,104.22c-57-26.38-103.27-120.39-137.39-241.7C461.52-252,441-393.92,441-543.35s20.54-291.3,52.71-405.87c34.12-121.31,80.36-215.32,137.39-241.7,58.74-27,117.88,31.82,171.37,147.25C859.62-920.2,909.83-741.36,953.82-543.35Z"/></g><g class="cls-4"><path class="cls-6" d="M414.77-545.16c-9.06,117.22-20.06,227.41-33.88,322.78-6.64,45.78-13.78,86.83-21.78,122.24-7.56,33.43-15.55,60.69-24.87,80.89C326-1.39,316.89,10.24,306.47,12.24,297.15,14,286.07,6.41,276.1-7.47c-23.05-32.14-42.93-88.64-66.51-160-11.33-34.31-22.25-68.77-33.18-102.08-10.24-31.21-20.23-60.64-30.19-87.54-9.06-24.47-17.94-46.4-26.71-65.51A450.51,450.51,0,0,0,96.66-466.5a306.44,306.44,0,0,0-18.6-27.45c-5.16-6.8-10-12.6-14-17.77-7.18-9.37-11.92-17.87-12.09-26.6s4.25-17.4,11.08-27c3.77-5.32,8.37-11.3,13.27-18.28a305.84,305.84,0,0,0,17.55-28.14,449.19,449.19,0,0,0,21.17-44.69c8.06-19.44,16.1-41.69,24.23-66.48,8.94-27.25,17.81-57,26.87-88.61,9.66-33.7,19.28-68.55,29.31-103.26,20.87-72.23,38.61-129.43,60.43-162.42,9.44-14.25,20.22-22.25,29.6-20.84,10.49,1.6,20,12.88,28.94,30.42,10.08,19.83,19.09,46.77,27.9,79.89,9.33,35.08,18,75.84,26.37,121.33C386.15-771.65,401.29-661.95,414.77-545.16Z"/><path class="cls-6" d="M465.87-546.12c-10.49,118.09-22.94,229.62-38,327.47-7.3,47.45-15.09,90.73-23.61,129-8.2,36.82-16.87,68.24-26.5,93.5-8.94,23.45-18.28,40.8-29.16,50.87-9.41,8.7-21.17,10.7-31.53,5.18-24-12.84-44.72-53.36-68.46-112-11.78-29.08-23-60.24-34.14-92.2-10.71-30.84-21-61.81-31.16-92-9.57-28.55-18.8-56-27.72-81.86-8.3-24.09-16.27-46.57-23.78-67.21-6.94-19.08-13.49-36.55-19.41-52.41-5.47-14.66-10.44-28-14.59-40.29-7.49-22.11-12.53-41.87-12.89-60.93s3.93-39,10.58-61.37c3.69-12.39,8.15-26,13.06-40.81,5.32-16.07,11.21-33.78,17.42-53.1,6.73-20.91,13.85-43.68,21.24-68.06,7.93-26.16,16.12-54,24.6-82.85,9-30.56,18.14-61.89,27.68-93.12,9.89-32.35,20-63.92,30.64-93.42,21.52-59.46,40.66-100.72,64.18-114.46,10.15-5.91,22-4.36,31.71,4,11.26,9.66,21.24,26.64,31.06,49.74,10.57,24.88,20.42,56,30,92.43,10,38,19.38,80.92,28.46,128.06C434.29-774.71,450.94-663.73,465.87-546.12Z"/><path class="cls-6" d="M492.63-546.63c-11.17,118.3-24.32,230.22-40,328.89-7.62,48-15.73,92.06-24.52,131.36-8.51,38-17.48,70.87-27.31,97.91-17.93,49.26-40.45,77-62.05,72.19-23.45-5.23-45.55-39.34-69.49-92S224-122.7,203.07-184.89c-9.75-29-19.14-57.64-28.15-85.19-8.5-26-16.6-50.84-24.21-74.26-13.77-42.39-26-80-34.73-112.49-7.78-29.06-12.92-56.06-13.42-82.44s3.63-53.55,10.3-82.88C120.33-655,131.17-693,143.33-735.88c6.71-23.69,13.88-48.84,21.39-75.11,8-27.88,16.26-56.81,24.92-86.2,18.53-62.93,37.61-125.45,59.51-178.94s42.74-88.48,66-94.59c21.4-5.57,44.94,21.24,64.72,69.8,10.84,26.65,21,59.16,31,96.81,10.27,38.94,20,82.65,29.46,130.34C459.65-775.76,477-664.42,492.63-546.63Z"/><path class="cls-6" d="M544.94-547.61c-12.42,118.25-26.83,230.44-43.62,330C485-121,467.24-39.66,446.29,20.6c-19.16,55.08-40,89.85-64.63,95.1-21.72,4.58-47.1-18.35-71.55-61.53-24.68-43.65-46.71-100-67.92-160.75-19.79-56.64-37.92-114.88-53.88-170.31-14.46-50.22-27.07-98.08-36.05-142.39-8.27-40.85-13.62-80.79-14.38-120.66s3.1-80,9.82-121.11C155-705.66,165.8-754,178.36-804.7c13.85-56,29.78-114.87,47.41-172.22,18.91-61.47,38.8-118.64,61.82-163.2,22.8-44.07,47.3-67.93,69.18-64.18,24.8,4.32,46.94,38.28,68.17,92.59,23.21,59.44,44.05,140,64,236C509.44-776.88,528.07-665.31,544.94-547.61Z"/><path class="cls-6" d="M569.27-548.07c-13,118.23-27.93,230.52-45.21,330.44C507.25-120.49,488.91-38.2,467.61,23.66,447.93,80.76,427,117.75,401.8,126.78,380.16,134.49,354,116,329.3,76.36c-25-40.17-47.32-94.29-68.7-154.09-20.08-56.2-38.45-115.45-54.53-173.18-14.73-52.88-27.51-104.49-36.61-153.31-8.47-45.48-13.93-90.64-14.79-136s2.9-90.73,9.65-136.49c7.26-49.13,18.08-101.19,30.8-154.59,13.9-58.29,30-118.19,48-175.11C262.2-1067,282.45-1121.92,305.93-1163c23.2-40.53,48.63-60,70.55-53.12,25.52,8.07,47.83,44.25,69.65,100.56,23.62,61,45,142.56,65.5,239C532.67-777.38,551.85-665.73,569.27-548.07Z"/><path class="cls-6" d="M616.72-549c-14,118-30,230.2-48.18,330.45-17.77,97.77-37.1,181.44-59.11,245.64-20.62,60.13-42.29,100.62-68,115.36-22.23,12.68-49.1,1.11-74.34-32.76-25.62-34.4-48.46-84.55-70.18-142.45-20.62-55-39.4-115.36-55.75-176.38-15.21-56.78-28.27-114.23-37.61-170.31-8.82-53-14.47-106.84-15.5-161.46s2.59-108.63,9.4-161.93c7.22-56.39,18.11-114.29,31.16-171.61,14-61.59,30.53-122.63,49.06-178.35,19.53-58.68,40.46-109.66,64.76-145,23.95-34.79,50.36-47.37,73.05-35.54,26.29,13.76,49.48,53.41,72.35,112.71,24.41,63.33,46.88,146.21,68.32,243.24C578.09-777.87,598.29-666.31,616.72-549Z"/><path class="cls-6" d="M638.62-549.38c-14.44,117.94-30.86,230.25-49.49,330.69-18.19,98.07-38,182.32-60.28,247.45-21,61.29-43.11,103.18-69.05,120-22.6,14.62-49.67,5.59-75.18-26.09-25.88-32.19-49-80.79-70.85-137.92C292.92-69.69,274-130.43,257.48-192.67c-15.4-58.25-28.6-118-38-176.89a1234.08,1234.08,0,0,1-15.8-171.62A1233.07,1233.07,0,0,1,213-713.27c7.21-59.24,18.14-119.4,31.34-178.19,14.12-62.82,30.78-124.23,49.56-179.43,19.72-57.92,40.95-107.36,65.61-140.5,24.29-32.61,51-42.66,74.14-28.9,26.55,15.84,50.2,56.87,73.53,117.32,24.76,64.24,47.68,147.69,69.56,245C599.1-778.3,619.75-666.69,638.62-549.38Z"/><path class="cls-6" d="M683.63-550.23C668.31-432.79,651-320.8,631.54-220.38c-19,98.21-39.63,183.13-62.62,249.59-21.83,63.06-44.75,107.25-71.07,127.53-23.41,18-50.83,13.32-76.88-14.43C394.57,114.15,371,68.5,348.76,13c-21.3-53.18-40.62-114.2-57.34-178.23a1833,1833,0,0,1-38.87-187.58,1447.45,1447.45,0,0,1-16.34-189,1447.92,1447.92,0,0,1,9.2-189.5A1834.81,1834.81,0,0,1,277.18-920.2c14.29-64.62,31.3-126.32,50.59-180.27,20.11-56.26,42-102.76,67.27-131.9,25-28.71,52.22-34.39,76.28-17.32,27.08,19.27,51.64,62.57,75.83,124.76,25.49,65.55,49.27,149.63,72,247.05C642.37-778.27,663.89-667,683.63-550.23Z"/><path class="cls-6" d="M722.56-551C690.45-316.63,652-108.38,603.77,29.84,581.28,94.16,557.69,140,531,162.68c-24.06,20.38-51.78,18.75-78.31-6.26-26.82-25.32-50.83-68.86-73.35-123.11C357.66-18.93,338-80.11,321.11-145.39a1842.75,1842.75,0,0,1-39.54-195.23A1609.45,1609.45,0,0,1,264.8-542.33,1609.75,1609.75,0,0,1,274-744.53,1842.32,1842.32,0,0,1,306.1-941.11c14.46-65.87,31.77-127.74,51.45-180.77,20.46-55.06,42.82-99.48,68.66-125.79,25.57-26,53.21-28.66,78-9.21,27.52,21.62,52.83,66.58,77.72,130C635.39-990.57,681.63-783.92,722.56-551Z"/><path class="cls-6" d="M742-551.33C709.19-317.95,670-110.24,621.21,28.31,598.41,93,574.49,139.47,547.62,163.07c-24.39,21.37-52.26,21.06-79-2.66C414.34,112.19,370.89-3.67,336-137.89a1836.21,1836.21,0,0,1-39.86-198A1674.11,1674.11,0,0,1,279.23-542.6a1673.56,1673.56,0,0,1,9.15-207.22,1838.53,1838.53,0,0,1,32.36-199.35C350.51-1084.6,389.56-1202,442-1252.25c25.85-24.71,53.69-26.08,78.86-5.64,27.74,22.57,53.4,68.11,78.63,131.89C653.43-989.38,700.42-783.3,742-551.33Z"/><path class="cls-6" d="M760.27-551.67C726.79-318.79,686.91-111.26,637.62,27.77c-45.2,127.33-100.25,182.1-154,137-54.6-46-98.46-160.84-133.47-295.66-32-123.14-54.5-265.95-57.27-412s14.41-289.57,41.69-413.83c29.91-136,69.41-252.5,122.24-300.48,52-47.1,109.12,5.56,159.09,131.09C670.36-989,718-783.12,760.27-551.67Z"/><path class="cls-6" d="M795.55-552.34C760.81-321.83,719.62-115.91,669.36,23.08,623,151.16,567.37,208.87,512.6,167.64c-55.23-41.75-99.87-154.15-135.18-289.11-32.48-124.27-55.2-270.83-58.07-421.89s14.35-298.37,42.12-423.78c30.2-136.2,70.57-250.19,124.19-294,53.17-43.26,110.93,12.32,162.1,138.55C703.22-985.6,752.14-781.37,795.55-552.34Z"/><path class="cls-6" d="M832.05-553C796-325.36,753.54-121.48,702.29,17.05,654.75,145.37,598.55,205.49,542.76,167.81c-55.84-37.89-101.28-147.7-136.89-282.32C372.87-239.37,350-388.79,347-543.88s14.34-305.27,42.61-431.28c30.51-135.88,71.78-247.32,126.15-287.28,54.33-39.76,112.75,18.2,165.1,144.64C737.33-981.3,787.48-779.18,832.05-553Z"/><path class="cls-6" d="M849.08-553.35C812.49-327.09,769.4-124.28,717.68,13.93,669.62,142.22,613.15,203.28,556.89,167.11S455,22.26,419.21-112.08C386-237,363-387.5,360-544.12s14.36-307.85,42.85-434c30.66-135.6,72.35-245.86,127-284.19,54.86-38.26,113.59,20.62,166.46,147C753.28-979.11,804-778.06,849.08-553.35Z"/><path class="cls-6" d="M878.28-553.9c-37.58,223-81.68,423.21-134.2,560.29-49,127.63-105.87,189.86-163,156.23-56.56-33.5-103-139.71-139-273-33.59-124.53-56.7-275.91-59.7-434.2S396.85-855,425.73-980.69c30.93-134.52,73.33-242.41,128.6-278,55.76-35.76,115,24.29,168.72,150C780.7-973.72,832.32-775.29,878.28-553.9Z"/><path class="cls-6" d="M890.45-554.13c-38,220.64-82.53,419-135.4,555C705.71,127.63,648.62,190,591.2,157.53,534.46,125.25,487.77,20.46,451.69-111.75c-33.73-123.77-56.87-274.79-59.87-433s14.46-310,43.51-434.93C466.39-1113.12,509.1-1219.6,564.58-1254c56.16-34.64,115.56,25.57,169.64,150.4C792.18-969.67,844.16-773.17,890.45-554.13Z"/><path class="cls-6" d="M912.34-554.54c-38.74,216-84,410.42-137.54,544.21-50,124.92-107.42,187.39-165.46,156.89-57-30.15-104.2-132.2-140.42-262.18-34-122.07-57.17-272-60.16-429.42s14.58-308.13,43.93-431.39c31.29-131.26,74.57-235,130.43-267.29,56.85-32.66,116.58,27.6,171.26,150.54C812.89-961.5,865.48-768.9,912.34-554.54Z"/><path class="cls-6" d="M930.59-554.88C891.2-344.95,845.24-155.63,791.19-25,740.61,97.08,682.93,158.93,624.37,130.3c-57.28-28.15-104.81-127-141.13-253.76-34.14-119.39-57.36-266.71-60.31-421.85s14.74-303.24,44.37-423.82c31.51-128.09,75.28-228.61,131.45-258.91,57.44-30.81,117.41,28.82,172.56,148.9C830.25-950.63,883.31-763.19,930.59-554.88Z"/><path class="cls-6" d="M939.11-555c-39.7,206.69-86,393.23-140.29,522.13C748,87.56,690.17,149,631.36,121.24,574,94,526.28-3.06,489.93-128.12,455.7-246,432.48-391.76,429.56-545.44s14.83-300.22,44.59-419.3c31.61-126.33,75.63-225.16,131.93-254.5,57.72-29.93,117.8,29.25,173.15,147.73C838.38-944.75,891.65-760.09,939.11-555Z"/><path class="cls-6" d="M953.71-555.32C913.46-356.52,866.63-176.76,811.8-52.23,760.49,64.18,702.48,124.13,643.23,98.22,585.72,72.92,537.71-20.2,501.31-140.85,467-254.79,443.79-396.25,441-545.65S456-837.29,486-952.44c31.82-121.94,76.28-216.8,132.8-244.25,58.23-28.12,118.46,29.6,174.13,144C852.41-930.33,906-752.46,953.71-555.32Z"/></g><polygon class="cls-7" points="-455.73 -1143.84 694.97 -1144.72 696.37 444.74 -454.34 445.87 -455.73 -1143.84"/><g class="cls-8"><polygon class="cls-9" points="-237.85 -797.46 482.89 -797.84 483.68 54.89 -237.12 55.59 -237.85 -797.46"/></g><polygon class="cls-10" points="-269.16 -1411.06 881.54 -1411.94 882.94 177.52 -267.77 178.65 -269.16 -1411.06"/><g class="cls-8"><polygon class="cls-11" points="-51.49 -1319.3 1099.51 -1319.91 1100.77 41.88 -50.32 42.99 -51.49 -1319.3"/></g></g><g class="cls-12"><path d="M149.79,73.79V91.9H89.66V0H110.4V73.79Z"/><path d="M314.16,91.9,269.65,33v59H249.83V0h18.9l44.64,59.08V0h19.7V91.9Z"/><path d="M392.27,0c28.49,0,48.32,18.77,48.32,46s-20.09,46-49.1,46H353.28V0ZM374,74.44H392.8c15.36,0,26.65-11.55,26.65-28.36s-11.82-28.62-27.57-28.62H374Z"/><path d="M66.4.4l-.15,62.87c0,19.5-13.42,29.48-33,29.48S0,79.31,0,59.82V57.31H14.23v2.9c0,11.86,7.64,19.63,19,19.63s15.31-7.62,15.31-19.48l1.4-60Z"/><rect x="162.28" y="0.4" width="70.4" height="16.65"/><rect x="173.64" y="36.73" width="46.18" height="17.41"/><rect x="162.28" y="75.34" width="71.92" height="16.65"/></g><g class="cls-13"><path class="cls-14" d="M154.43,76.54V94.49H94.85V3.42H115.4V76.54Z"/><path class="cls-14" d="M317.31,94.49,273.2,36.08V94.49H253.56V3.42h18.73L316.53,62V3.42H336V94.49Z"/><path class="cls-14" d="M394.71,3.42C422.94,3.42,442.59,22,442.59,49s-19.91,45.53-48.66,45.53H356.07V3.42ZM376.63,77.19h18.6c15.22,0,26.41-11.45,26.41-28.1s-11.71-28.37-27.32-28.37H376.63Z"/><path class="cls-14" d="M71.8,3.81l-.15,62.31c0,19.32-13.3,29.21-32.75,29.21S6,82,6,62.69V60.21H20.1v2.87c0,11.75,7.57,19.46,18.8,19.46S54.07,75,54.07,63.23L55.45,3.81Z"/><rect class="cls-14" x="166.81" y="3.81" width="69.76" height="16.5"/><rect class="cls-14" x="178.06" y="39.82" width="45.76" height="17.25"/><rect class="cls-14" x="166.81" y="78.08" width="71.26" height="16.5"/></g><g class="cls-15"><path class="cls-16" d="M152.16,75.79l0,18-59.85.1L92.18,2.43l20.65,0L113,75.85Z"/><path class="cls-16" d="M315.81,93.56,271.4,35l.1,58.68-19.74,0-.14-91.48,18.82,0L315,60.89l-.1-58.81,19.61,0,.14,91.49Z"/><path class="cls-16" d="M393.42,2c28.36-.05,48.12,18.61,48.17,45.67s-19.93,45.77-48.81,45.82l-38,.06L354.6,2ZM375.37,76.08l18.69,0c15.29,0,26.51-11.54,26.48-28.27s-11.8-28.47-27.49-28.45l-17.77,0Z"/><path class="cls-16" d="M69,2.86l0,62.59c0,19.41-13.31,29.37-32.86,29.4S3.05,81.53,3,62.12V59.63l14.16,0v2.88C17.21,74.29,24.83,82,36.1,82s15.23-7.61,15.21-19.42l1.3-59.69Z"/><rect class="cls-16" x="164.48" y="2.66" width="70.08" height="16.58" transform="translate(-0.02 0.32) rotate(-0.09)"/><rect class="cls-16" x="175.85" y="38.83" width="45.97" height="17.33" transform="translate(-0.08 0.32) rotate(-0.09)"/><rect class="cls-16" x="164.6" y="77.26" width="71.59" height="16.58" transform="translate(-0.14 0.32) rotate(-0.09)"/></g><path class="cls-17" d="M154.17,73.66V91.14h-58V2.44h20V73.66Z"/><path class="cls-17" d="M312.82,91.14l-43-56.89V91.14H250.73V2.44H269l43.09,57v-57h19v88.7Z"/><path class="cls-17" d="M388.21,2.44c27.5,0,46.64,18.12,46.64,44.35s-19.39,44.35-47.4,44.35H350.58V2.44ZM370.6,74.29h18.12c14.83,0,25.72-11.15,25.72-27.37S403,19.29,387.83,19.29H370.6Z"/><path class="cls-17" d="M73.69,2.82,73.55,63.5c0,18.82-13,28.46-31.91,28.46s-32-13-32-31.79V57.76H23.33v2.79c0,11.45,7.38,19,18.31,19s14.78-7.36,14.78-18.81L57.77,2.82Z"/><rect class="cls-17" x="166.23" y="2.82" width="67.95" height="16.07"/><rect class="cls-17" x="177.19" y="37.89" width="44.57" height="16.81"/><rect class="cls-17" x="166.23" y="75.16" width="69.41" height="16.07"/></g></g></svg>